HIERARCHY
ROOT Hips
{
    OFFSET 0.000000 0.000000 0.000000
    CHANNELS 6 Xposition Yposition Zposition Zrotation Xrotation Yrotation
    JOINT Spine
    {
        OFFSET -0.000000 14.517291 0.000000
        CHANNELS 3 Zrotation Xrotation Yrotation
        JOINT Spine1
        {
            OFFSET -0.000000 37.558300 0.000000
            CHANNELS 3 Zrotation Xrotation Yrotation
            JOINT Neck
            {
                OFFSET -0.000000 37.404057 3.400369
                CHANNELS 3 Zrotation Xrotation Yrotation
                JOINT Head
                {
                    OFFSET -0.000000 24.785618 -3.540803
                    CHANNELS 3 Zrotation Xrotation Yrotation
                    End Site
                    {
                        OFFSET -0.000000 35.408028 0.000000
                    }
                }
            }
            JOINT LeftShoulder
            {
                OFFSET 6.992933 33.973492 -0.192664
                CHANNELS 3 Zrotation Xrotation Yrotation
                JOINT LeftArm
                {
                    OFFSET 21.527611 0.000000 0.000000
                    CHANNELS 3 Zrotation Xrotation Yrotation
                    JOINT LeftForeArm
                    {
                        OFFSET 56.353916 0.000000 0.000000
                        CHANNELS 3 Zrotation Xrotation Yrotation
                        JOINT LeftHand
                        {
                            OFFSET 47.774071 0.000000 0.000000
                            CHANNELS 3 Zrotation Xrotation Yrotation
                            End Site
                            {
                                OFFSET 26.556021 0.000000 0.000000
                            }
                        }
                    }
                }
            }
            JOINT RightShoulder
            {
                OFFSET -7.065357 33.973492 -0.192664
                CHANNELS 3 Zrotation Xrotation Yrotation
                JOINT RightArm
                {
                    OFFSET -21.527611 0.000000 0.000000
                    CHANNELS 3 Zrotation Xrotation Yrotation
                    JOINT RightForeArm
                    {
                        OFFSET -56.353916 0.000000 0.000000
                        CHANNELS 3 Zrotation Xrotation Yrotation
                        JOINT RightHand
                        {
                            OFFSET -47.774071 0.000000 0.000000
                            CHANNELS 3 Zrotation Xrotation Yrotation
                            End Site
                            {
                                OFFSET -26.556021 0.000000 0.000000
                            }
                        }
                    }
                }
            }
        }
    }
    JOINT LeftUpLeg
    {
        OFFSET 17.704014 0.000000 0.000000
        CHANNELS 3 Zrotation Xrotation Yrotation
        JOINT LeftLeg
        {
            OFFSET -0.000000 -81.181816 0.000000
            CHANNELS 3 Zrotation Xrotation Yrotation
            JOINT LeftFoot
            {
                OFFSET -0.000000 -62.821102 0.000000
                CHANNELS 3 Zrotation Xrotation Yrotation
                JOINT LeftToeBase
                {
                    OFFSET -0.000000 -11.507608 26.556021
                    CHANNELS 3 Zrotation Xrotation Yrotation
                    End Site
                    {
                        OFFSET -0.000000 0.000000 7.081605
                    }
                }
            }
        }
    }
    JOINT RightUpLeg
    {
        OFFSET -17.704014 0.000000 0.000000
        CHANNELS 3 Zrotation Xrotation Yrotation
        JOINT RightLeg
        {
            OFFSET -0.000000 -81.181816 0.000000
            CHANNELS 3 Zrotation Xrotation Yrotation
            JOINT RightFoot
            {
                OFFSET -0.000000 -62.821102 0.000000
                CHANNELS 3 Zrotation Xrotation Yrotation
                JOINT RightToeBase
                {
                    OFFSET -0.000000 -11.507608 26.556021
                    CHANNELS 3 Zrotation Xrotation Yrotation
                    End Site
                    {
                        OFFSET -0.000000 0.000000 7.081605
                    }
                }
            }
        }
    }
}
MOTION
Frames:    4
Frame Time:    0.008333
-24.685293    169.750641    -21.005131    -12.453347    -28.796942    42.394814    1.992444    6.594341    -7.501338    -5.647295    -1.945766    -2.555064    17.504723    -3.337941    -5.441121    7.643800    2.240551    -7.873089    10.432796    7.797188    -23.483110    -32.129765    16.451481    -60.009388    -0.743060    -30.797337    -108.151176    -9.810680    -30.577898    -14.839628    10.474557    2.965937    -8.915602    26.674770    4.562903    28.448093    -20.510433    -6.351293    58.914860    -10.633055    2.320596    32.060127    32.404686    1.652401    4.803335    -3.322253    30.072699    -19.745518    3.303895    -15.826427    31.788605    0.000000    0.000000    0.000000    -81.697487    -46.094765    -49.474285    10.377846    22.835373    -8.362543    12.016131    17.898638    -19.846874    0.000000    0.000000    0.000000    
-24.704174    169.726746    -21.058744    -12.463626    -28.731852    42.417473    1.990442    6.561458    -7.469576    -5.456551    -1.759110    -2.532524    17.583868    -3.226115    -5.424890    7.712096    2.188301    -7.841236    10.516962    7.775222    -23.473349    -32.075207    16.466480    -59.911011    -0.761021    -30.816088    -108.119972    -9.795244    -30.617859    -14.859917    10.550474    3.085205    -8.898152    26.708965    4.438061    28.511852    -20.567152    -6.451900    58.938259    -10.549636    2.293961    31.946686    32.341732    1.575567    4.893176    -3.257289    30.071520    -19.811876    3.389098    -15.809630    31.739204    0.000000    0.000000    0.000000    -81.770813    -46.075172    -49.523727    10.357917    22.775946    -8.380961    12.007288    17.949598    -19.843542    0.000000    0.000000    0.000000    
-24.721418    169.696594    -21.108374    -12.471443    -28.661652    42.450497    1.953819    6.469688    -7.442940    -5.203259    -1.504212    -2.509429    17.684378    -3.093467    -5.378911    7.688266    2.078925    -7.786227    10.503060    7.760517    -23.488848    -31.933739    16.554789    -59.801674    -0.643268    -31.006983    -108.022385    -9.869189    -30.661686    -14.835713    10.554260    3.117702    -8.743936    26.819910    4.170668    28.403402    -20.516542    -6.359769    59.082970    -10.663878    2.366380    31.872381    32.273319    1.486671    4.992122    -3.187784    30.076149    -19.871365    3.500940    -15.781081    31.677242    0.000000    0.000000    0.000000    -81.839081    -46.061371    -49.598991    10.275327    22.728765    -8.379803    12.002998    18.002014    -19.772217    0.000000    0.000000    0.000000    
-24.738256    169.667191    -21.154902    -12.476058    -28.599623    42.494228    1.946446    6.444453    -7.409098    -5.005895    -1.311362    -2.487371    17.880934    -2.968750    -5.335388    7.592352    1.941661    -7.759306    10.578013    7.753994    -23.446995    -31.827269    16.589235    -59.781658    -0.785554    -31.104971    -108.082809    -9.885819    -30.945332    -14.597373    10.672074    3.143909    -8.734936    26.793962    4.115356    28.421782    -20.623934    -6.439582    59.049911    -10.673496    2.325098    32.007835    32.213165    1.388786    5.070879    -3.125818    30.104584    -19.954521    3.605793    -15.761882    31.647615    0.000000    0.000000    0.000000    -81.885323    -46.020142    -49.595570    10.228601    22.651102    -8.388204    12.344159    17.900665    -19.976540    0.000000    0.000000    0.000000    
